<svg xmlns="http://www.w3.org/2000/svg" width="375" height="178.473" xmlns:v="https://vecta.io/nano">
    <defs>
        <linearGradient id="A" x1=".494" y1="-.282" x2=".516" y2="1.028">
            <stop offset="0" stop-color="#ffbaae" />
            <stop offset="1" stop-color="#ff776d" />
        </linearGradient>
    </defs>
    <path d="M0 0h375v177H0z" opacity=".84" fill="url(#A)" />
    <g transform="matrix(.97437 -.224951 .224951 .97437 -1512.154 -6727.403)" fill="none" stroke="#ffbaae"
        stroke-linejoin="round" stroke-width="7">
        <path
            d="M-23.556 7009h52.112c1.974 0 3.868.784 5.264 2.18s2.18 3.289 2.18 5.264v52.112c0 1.974-.784 3.868-2.18 5.264s-3.289 2.18-5.264 2.18h-52.112c-1.974 0-3.868-.784-5.264-2.18s-2.18-3.289-2.18-5.264v-52.112c0-1.974.784-3.868 2.18-5.264s3.289-2.18 5.264-2.18z" />
        <path
            d="M-4.94 7029.475c0 2.26-1.361 4.297-3.449 5.162s-4.491.387-6.089-1.212-2.076-4.001-1.21-6.089 2.903-3.449 5.162-3.448a5.59 5.59 0 0 1 5.586 5.587z" />
        <path d="M36 7053.652l-18.61-18.622-40.941 40.969" stroke-linecap="round" />
    </g>
    <g transform="matrix(.939693 .34202 -.34202 .939693 2457.803 -6539.735)" fill="none" stroke="#ffbaae"
        stroke-linejoin="round" stroke-width="4">
        <path
            d="M-27.756 7009h22.709c.861-.001 1.687.341 2.296.949s.951 1.434.951 2.295v22.709c.001.861-.341 1.688-.95 2.297s-1.435.951-2.297.95h-22.709c-.861 0-1.686-.342-2.295-.951s-.95-1.435-.949-2.296v-22.709c0-1.792 1.452-3.244 3.244-3.244z" />
        <path
            d="M-19.643 7017.923c0 .985-.593 1.873-1.503 2.25s-1.957.168-2.654-.528-.904-1.744-.527-2.654 1.265-1.503 2.25-1.502c1.344.001 2.434 1.091 2.434 2.435z" />
        <path d="M-1.803 7028.458l-8.109-8.115-17.842 17.854" stroke-linecap="round" />
    </g>
    <path
        d="M369.629 0A40.89 40.89 0 0 1 358.5 46.522h.014l-.03.01-.853.725c-.472.844-.328 2.562 3.436 5.891 7.424 6.567 10.714 6.92 8.631 8.111s-33.435-3.158-38.794-4.538c-.05-.013-.005.01-.05-.013-21.647-2.6-40.026-18.889-40.026-41.156-.005-5.336 1.039-10.621 3.071-15.555h-36.253a72.05 72.05 0 0 0-1.711 15.579c.072 23.176 11.157 44.938 29.861 58.624.552 1.769-.275 4.875-6.37 10.068-8.828 7.522-16.024 10.727-12.269 12.872s75.338-7.282 82.083-9.8a.59.59 0 0 0 .061-.035c9.181-2.111 17.893-5.898 25.7-11.171V0z"
        fill="#ffbaae" />
</svg>