<svg xmlns="http://www.w3.org/2000/svg" width="28" height="28"  xmlns:v="https://vecta.io/nano"><circle cx="14" cy="14" r="14" fill="#f0f0f0"/><path d="M13.373 14.103h14.161c.001-1.195-.156-2.386-.467-3.54H13.373zm0-7.08h12.169a13.64 13.64 0 0 0-3.131-3.54h-9.038zm.591 20.653a13.51 13.51 0 0 0 8.448-2.95h-16.9a13.51 13.51 0 0 0 8.452 2.95zm-11.58-6.492h23.157a13.49 13.49 0 0 0 1.524-3.54H.86a13.49 13.49 0 0 0 1.524 3.54z" fill="#d80027"/><path d="M6.679 2.652h1.237l-1.15.836.439 1.352-1.15-.836-1.15.836.38-1.168c-1.015.845-1.902 1.833-2.633 2.933h.4l-.736.528q-.171.285-.328.58l.35 1.076-.652-.474q-.244.518-.445 1.058l.385 1.186h1.422l-1.15.836.439 1.352-1.15-.836-.689.5a13.7 13.7 0 0 0-.105 1.693h13.571V.533c-2.581-.004-5.109.731-7.285 2.119zm.526 10.094l-1.15-.836-1.15.836.439-1.352-1.151-.835h1.422l.439-1.352.439 1.352h1.423l-1.15.836zm-.439-5.305l.439 1.352-1.15-.836-1.15.836.439-1.352-1.151-.836h1.422l.44-1.352.438 1.352h1.423zm5.307 5.305l-1.15-.836-1.15.836.439-1.352-1.15-.836h1.421l.439-1.352.439 1.352h1.422l-1.15.836zm-.44-5.305l.44 1.352-1.15-.836-1.15.836.439-1.352-1.15-.836h1.421l.439-1.352.439 1.352h1.422zm0-3.953l.439 1.352-1.15-.836-1.15.836.439-1.352-1.15-.836h1.422l.439-1.352.439 1.352h1.422z" fill="#0052b4"/></svg>