<svg xmlns="http://www.w3.org/2000/svg" width="28" height="28" xmlns:v="https://vecta.io/nano">
    <circle cx="14" cy="14" r="14" fill="#6da544" />
    <path d="M13.987 5.552l11.577 8.53-11.577 8.53-11.578-8.534z" fill="#ffda44" />
    <circle cx="13.986" cy="14.082" r="4.874" fill="#f0f0f0" />
    <path
        d="M11.549 13.778a8.2 8.2 0 0 0-2.436.368c.027 2.115 1.416 3.972 3.437 4.595s4.215-.13 5.428-1.863c-1.559-1.959-3.926-3.1-6.429-3.1zm7.221 1.238c.475-2.445-.969-4.854-3.348-5.588s-4.93.443-5.915 2.73a10.05 10.05 0 0 1 9.263 2.858z"
        fill="#0052b4" />
</svg>