<svg xmlns="http://www.w3.org/2000/svg" width="27" height="27" fill="none" stroke="#3398b2" stroke-linejoin="round"
    stroke-width="3" xmlns:v="https://vecta.io/nano">
    <path
        d="M25.5 9.167c0 3.101-1.868 5.897-4.733 7.083s-6.163.531-8.356-1.662-2.848-5.491-1.661-8.356S14.733 1.5 17.834 1.5A7.67 7.67 0 0 1 25.5 9.167z" />
    <path
        d="M21.203 13.167c0 3.101-1.868 5.897-4.733 7.083s-6.163.531-8.356-1.662-2.848-5.491-1.661-8.356S10.436 5.5 13.537 5.5a7.67 7.67 0 0 1 7.666 7.667z" />
    <path d="M16.359 20.494A7.67 7.67 0 0 1 1.5 17.834c.018-3.162 1.958-5.994 4.9-7.153" stroke-linecap="round" /></svg>