<svg xmlns="http://www.w3.org/2000/svg" width="27.002" height="27.006" fill="none" stroke="#3398b2"
    stroke-linejoin="round" stroke-width="3" xmlns:v="https://vecta.io/nano">
    <path
        d="M12.986 11.353h10.952a1.57 1.57 0 0 1 1.564 1.573v11.008a1.57 1.57 0 0 1-1.564 1.573H12.986a1.57 1.57 0 0 1-1.564-1.573V12.926a1.57 1.57 0 0 1 1.564-1.573z" />
    <path
        d="M6.508 20.013L6.52 8.554a2.02 2.02 0 0 1 .72-1.5 2.56 2.56 0 0 1 1.648-.518h11.1M1.502 14.989L1.514 3.53a2.02 2.02 0 0 1 .72-1.5 2.56 2.56 0 0 1 1.648-.518h11.1"
        stroke-linecap="round" />
</svg>